<?xml version="1.0" standalone="no"?>
<!DOCTYPE svg PUBLIC "-//W3C//DTD SVG 20010904//EN"
 "http://www.w3.org/TR/2001/REC-SVG-20010904/DTD/svg10.dtd">
<svg version="1.0" xmlns="http://www.w3.org/2000/svg"
 width="200.000000pt" height="200.000000pt" viewBox="0 0 200.000000 200.000000"
 preserveAspectRatio="xMidYMid meet">
<metadata>
Created by potrace 1.11, written by Peter Selinger 2001-2013
</metadata>
<g transform="translate(0.000000,200.000000) scale(0.100000,-0.100000)"
fill="#000000" stroke="none">
<path d="M474 1266 c-46 -20 -54 -56 -54 -245 0 -225 12 -260 90 -260 64 0 90
37 90 130 l0 62 37 -6 c50 -9 63 -25 72 -92 10 -69 34 -95 90 -95 52 0 71 18
82 75 12 62 -2 105 -43 140 l-30 25 26 21 c14 11 31 38 37 60 26 84 -34 167
-133 189 -69 14 -226 12 -264 -4z m223 -98 c7 -6 13 -26 13 -45 0 -29 -5 -36
-35 -49 -67 -28 -75 -22 -75 52 l0 67 42 -7 c23 -4 48 -12 55 -18z"/>
<path d="M1232 1274 c-46 -11 -57 -46 -60 -203 -5 -189 3 -266 31 -291 18 -18
35 -20 141 -20 137 0 183 14 228 68 45 53 61 110 57 205 -4 72 -8 90 -34 133
-47 75 -113 105 -241 109 -54 2 -109 1 -122 -1z m163 -118 c42 -18 60 -72 52
-165 -6 -73 -30 -114 -70 -119 l-27 -3 0 150 c0 83 2 151 5 151 3 0 21 -6 40
-14z"/>
</g>
</svg>
